<svg id="Capa_1" enable-background="new 0 0 512 512" height="512" viewBox="0 0 512 512" width="512" xmlns="http://www.w3.org/2000/svg"><g><g><path clip-rule="evenodd" d="m446.441 233.251c-11.33-104.021-99.462-184.971-206.488-184.971-114.735 0-207.714 93.011-207.714 207.72s92.979 207.72 207.714 207.72c50.052 0 95.987-17.726 131.847-47.221 74.787-58.785 70.728-142.452 74.641-183.248z" fill="#f9f7f8" fill-rule="evenodd"/></g><g><path clip-rule="evenodd" d="m478.885 234.156c-11.038-122.272-113.8-218.087-238.961-218.087-132.519 0-239.924 107.408-239.924 239.931s107.405 239.931 239.924 239.931c46.461 0 89.855-13.2 126.591-36.066l9.286-25.961-9.286-23.771c-34.429 28.298-78.524 45.323-126.591 45.323-110.15 0-199.45-89.302-199.45-199.456s89.3-199.456 199.45-199.456c102.762 0 187.39 77.738 198.253 177.612l22.077 10.046z" fill="#c3ddff" fill-rule="evenodd"/></g><g><path clip-rule="evenodd" d="m487.529 326.963v-60.07h-8.644-40.679-47.219v60.07h39.16 42.109z" fill="#e0dfe1" fill-rule="evenodd"/></g><g><path clip-rule="evenodd" d="m503.707 272.529v-33.204c0-2.833-2.336-5.169-5.169-5.169h-19.653-40.708-58.2c-2.833 0-5.169 2.336-5.169 5.169v33.204c0 2.862 2.336 5.169 5.169 5.169h11.009 47.22 40.678 8.644 11.009c2.833 0 5.17-2.307 5.17-5.169z" fill="#b3e59f" fill-rule="evenodd"/></g><g><path clip-rule="evenodd" d="m487.529 316.129v-38.431h-8.644-4.497-11.009v38.431h8.877 10.279z" fill="#d3cfd2" fill-rule="evenodd"/></g><g><path clip-rule="evenodd" d="m503.707 272.529v-33.204c0-2.833-2.336-5.169-5.169-5.169h-19.653-4.497c1.051 0 2.044.321 2.862.876s1.489 1.343 1.898 2.278c.263.613.409 1.314.409 2.015v4.526 24.297 4.38c0 .73-.146 1.402-.409 2.015-.788 1.84-2.628 3.154-4.76 3.154h4.497 8.644 11.009c2.832.001 5.169-2.306 5.169-5.168z" fill="#95d6a4" fill-rule="evenodd"/></g><g><path clip-rule="evenodd" d="m512 439.861v-118.417c0-2.92-2.395-5.315-5.315-5.315-44.942 0-89.884 0-134.855 0-2.92 0-5.315 2.395-5.315 5.315v88.689 29.729l72.742 13.667z" fill="#b3e59f" fill-rule="evenodd"/></g><g><path clip-rule="evenodd" d="m512 480.424v-40.563h-117.918-27.567v20.004 20.559c0 2.92 2.395 5.315 5.315 5.315h134.855c2.92 0 5.315-2.395 5.315-5.315z" fill="#95d6a4" fill-rule="evenodd"/></g><g><path clip-rule="evenodd" d="m512 439.861v-118.417c0-2.92-2.395-5.315-5.315-5.315h-19.157-4.994c2.92 0 5.315 2.395 5.315 5.315v118.418h24.151z" fill="#95d6a4" fill-rule="evenodd"/></g><g><path clip-rule="evenodd" d="m512 480.424v-40.563h-24.15v40.563c0 2.92-2.395 5.315-5.315 5.315h24.15c2.92 0 5.315-2.395 5.315-5.315z" fill="#78c2a4" fill-rule="evenodd"/></g><g><path clip-rule="evenodd" d="m374.809 272.529v-33.204c0-2.833 2.336-5.169 5.169-5.169h58.2c-10.689-98.121-92.513-174.866-192.822-177.524 38.05 48.652 62.259 121.601 62.259 203.164 0 77.3-21.726 146.861-56.418 195.338 43.686-2.424 83.606-18.923 115.319-45.031v-88.66c0-2.92 2.395-5.315 5.315-5.315h19.157v-38.431h-11.009c-2.834.001-5.17-2.306-5.17-5.168z" fill="#f0f0f0" fill-rule="evenodd"/></g><g><path clip-rule="evenodd" d="m478.856 234.156c-11.039-122.272-113.772-218.087-238.932-218.087-11.622 0-23.011.818-34.196 2.395 11.681 8.148 22.632 18.164 32.765 29.816 2.336 2.687 4.614 5.49 6.862 8.352 4.643.117 9.257.409 13.813.818 3.679.38 7.359.818 10.98 1.373 88.716 13.492 158.246 85.448 168.029 175.334h8.177 28.034 4.468z" fill="#a4ccff" fill-rule="evenodd"/></g><g><path clip-rule="evenodd" d="m239.924 495.931c46.461 0 89.855-13.229 126.591-36.095v-19.975-19.157-10.571c-29.932 24.618-67.165 40.68-107.989 44.476-2.424.204-4.877.38-7.33.526-2.073 2.92-4.205 5.753-6.395 8.527-9.345 11.856-19.507 22.223-30.37 30.926 8.381.905 16.879 1.343 25.493 1.343z" fill="#a4ccff" fill-rule="evenodd"/></g><g><path d="m239.925 423.933c-4.268 0-7.726-3.459-7.726-7.726v-20.15c0-4.267 3.459-7.726 7.726-7.726s7.726 3.459 7.726 7.726v20.15c0 4.267-3.459 7.726-7.726 7.726zm0-300.263c-4.268 0-7.726-3.459-7.726-7.726v-20.15c0-4.267 3.459-7.726 7.726-7.726s7.726 3.459 7.726 7.726v20.15c0 4.266-3.459 7.726-7.726 7.726z" fill="#7e707d"/></g><g><path d="m99.871 263.726h-20.15c-4.268 0-7.726-3.459-7.726-7.726s3.459-7.726 7.726-7.726h20.15c4.268 0 7.726 3.459 7.726 7.726.001 4.267-3.458 7.726-7.726 7.726z" fill="#7e707d"/></g><g><path d="m159.816 402.471c-1.312 0-2.64-.335-3.857-1.037-3.695-2.134-4.961-6.86-2.826-10.555l3.913-6.775c2.134-3.695 6.863-4.959 10.554-2.826 3.695 2.134 4.961 6.86 2.826 10.555l-3.913 6.775c-1.431 2.478-4.028 3.863-6.697 3.863zm156.29-270.711c-1.311 0-2.64-.334-3.857-1.037-3.695-2.134-4.961-6.859-2.827-10.554l3.912-6.775c2.134-3.696 6.858-4.963 10.555-2.827 3.695 2.134 4.961 6.859 2.827 10.554l-3.912 6.775c-1.432 2.478-4.028 3.864-6.698 3.864z" fill="#7e707d"/></g><g><path d="m101.192 343.831c-2.669 0-5.266-1.385-6.697-3.863-2.135-3.695-.869-8.421 2.825-10.555l6.775-3.913c3.694-2.134 8.42-.87 10.555 2.825s.869 8.421-2.825 10.555l-6.775 3.913c-1.217.704-2.546 1.038-3.858 1.038zm270.703-156.293c-2.669 0-5.266-1.385-6.697-3.863-2.135-3.695-.869-8.421 2.825-10.555l6.775-3.913c3.694-2.134 8.42-.87 10.555 2.825s.869 8.421-2.825 10.555l-6.775 3.913c-1.217.703-2.546 1.038-3.858 1.038z" fill="#7e707d"/></g><g><path d="m320.032 402.471c-2.67 0-5.267-1.386-6.698-3.864l-3.912-6.775c-2.134-3.695-.868-8.421 2.827-10.554 3.697-2.134 8.421-.869 10.555 2.827l3.912 6.775c2.134 3.695.868 8.421-2.827 10.554-1.217.702-2.546 1.037-3.857 1.037zm-156.289-270.711c-2.67 0-5.266-1.385-6.697-3.863l-3.913-6.775c-2.135-3.695-.869-8.421 2.826-10.555 3.694-2.134 8.42-.869 10.554 2.826l3.913 6.775c2.135 3.695.869 8.421-2.826 10.555-1.216.703-2.546 1.037-3.857 1.037z" fill="#7e707d"/></g><g><path d="m107.953 187.538c-1.312 0-2.64-.335-3.858-1.038l-6.775-3.913c-3.694-2.134-4.96-6.86-2.825-10.555 2.134-3.696 6.858-4.96 10.555-2.825l6.775 3.913c3.694 2.134 4.96 6.86 2.825 10.555-1.431 2.477-4.028 3.863-6.697 3.863z" fill="#7e707d"/></g><path d="m460.254 370.283h-13.27v-13.271c0-4.267-3.459-7.726-7.726-7.726s-7.726 3.459-7.726 7.726v13.271h-13.27c-4.268 0-7.726 3.459-7.726 7.726s3.459 7.726 7.726 7.726h13.27v13.241c0 4.267 3.459 7.726 7.726 7.726s7.726-3.459 7.726-7.726v-13.241h13.27c4.268 0 7.726-3.459 7.726-7.726s-3.459-7.726-7.726-7.726z" fill="#ff8086"/><g><path d="m152.026 351.101c-1.985 0-3.97-.76-5.48-2.28-3.008-3.026-2.993-7.919.033-10.927l72.597-72.16c3.026-3.007 7.919-2.994 10.927.033 3.008 3.026 2.993 7.919-.033 10.927l-72.597 72.16c-1.507 1.499-3.477 2.247-5.447 2.247z" fill="#c3ddff"/></g><g><path d="m239.925 242.145c-4.268 0-7.726-3.459-7.726-7.726v-75.168c0-4.267 3.459-7.726 7.726-7.726s7.726 3.459 7.726 7.726v75.168c0 4.267-3.459 7.726-7.726 7.726z" fill="#c3ddff"/></g><g><path clip-rule="evenodd" d="m239.924 277.581c11.885 0 21.58-9.695 21.58-21.581s-9.695-21.581-21.58-21.581-21.58 9.695-21.58 21.581 9.695 21.581 21.58 21.581z" fill="#7e707d" fill-rule="evenodd"/></g></g></svg>